<!-- apps/web/assets/icons.svg -->
<svg xmlns="http://www.w3.org/2000/svg" style="display:none">
  <!-- Core -->
  <symbol id="i-menu" viewBox="0 0 24 24">
    <path fill="currentColor" d="M4 6h16v2H4V6zm0 5h16v2H4v-2zm0 5h16v2H4v-2z"/>
  </symbol>

  <symbol id="i-search" viewBox="0 0 24 24">
    <path fill="currentColor" d="M10 4a6 6 0 104.472 10.03l3.749 3.75 1.414-1.415-3.75-3.748A6 6 0 0010 4zm0 2a4 4 0 110 8 4 4 0 010-8z"/>
  </symbol>

  <symbol id="i-x" viewBox="0 0 24 24">
    <path fill="currentColor" d="M18.3 5.71L12 12l6.3 6.29-1.41 1.42L10.59 13.4 4.29 19.71 2.88 18.29 9.17 12 2.88 5.71 4.29 4.29l6.3 6.3 6.3-6.3 1.41 1.42z"/>
  </symbol>

  <symbol id="i-plus" viewBox="0 0 24 24">
    <path fill="currentColor" d="M11 5h2v6h6v2h-6v6h-2v-6H5v-2h6V5z"/>
  </symbol>

  <symbol id="i-moon" viewBox="0 0 24 24">
    <path fill="currentColor" d="M21 14.5A7.5 7.5 0 0110.5 3a6.5 6.5 0 1010.5 11.5z"/>
  </symbol>

  <symbol id="i-sun" viewBox="0 0 24 24">
    <path fill="currentColor" d="M12 18a6 6 0 110-12 6 6 0 010 12zm0-16h2v3h-2V2zM12 19h2v3h-2v-3zM2 12h3v2H2v-2zm19 0h3v2h-3v-2zM4.2 4.2l2.1-2.1 2.1 2.1-2.1 2.1-2.1-2.1zm13.5 13.5l2.1-2.1 2.1 2.1-2.1 2.1-2.1-2.1zM19.8 4.2l-2.1-2.1-2.1 2.1 2.1 2.1 2.1-2.1zM6.3 17.7l-2.1-2.1-2.1 2.1 2.1 2.1 2.1-2.1z"/>
  </symbol>

  <!-- Nav -->
  <symbol id="i-home" viewBox="0 0 24 24">
    <path fill="currentColor" d="M12 3l9 8h-3v10h-5v-6H11v6H6V11H3l9-8z"/>
  </symbol>

  <symbol id="i-compass" viewBox="0 0 24 24">
    <path fill="currentColor" d="M12 2a10 10 0 100 20 10 10 0 000-20zm3 7l-2 6-6 2 2-6 6-2z"/>
  </symbol>

  <symbol id="i-edit" viewBox="0 0 24 24">
    <path fill="currentColor" d="M3 17.25V21h3.75L17.8 9.95l-3.75-3.75L3 17.25zM20.7 7.04a1 1 0 000-1.41l-2.34-2.34a1 1 0 00-1.41 0l-1.83 1.83 3.75 3.75 1.83-1.83z"/>
  </symbol>

  <symbol id="i-chat" viewBox="0 0 24 24">
    <path fill="currentColor" d="M4 4h16v12H7l-3 3V4zm4 5h8v2H8V9zm0-3h10v2H8V6zm0 6h6v2H8v-2z"/>
  </symbol>

  <symbol id="i-user" viewBox="0 0 24 24">
    <path fill="currentColor" d="M12 12a4 4 0 110-8 4 4 0 010 8zm0 2c4.4 0 8 2 8 4.5V21H4v-2.5C4 16 7.6 14 12 14z"/>
  </symbol>

  <symbol id="i-settings" viewBox="0 0 24 24">
    <path fill="currentColor" d="M19.14 12.94c.04-.31.06-.63.06-.94s-.02-.63-.06-.94l2.03-1.58-1.92-3.32-2.39.96a7.1 7.1 0 00-1.63-.94l-.36-2.54H9.13l-.36 2.54c-.58.23-1.12.54-1.63.94l-2.39-.96-1.92 3.32 2.03 1.58c-.04.31-.06.63-.06.94s.02.63.06.94L2.83 14.52l1.92 3.32 2.39-.96c.5.4 1.05.71 1.63.94l.36 2.54h5.74l.36-2.54c.58-.23 1.12-.54 1.63-.94l2.39.96 1.92-3.32-2.03-1.58zM12 15.5A3.5 3.5 0 1112 8a3.5 3.5 0 010 7.5z"/>
  </symbol>

  <!-- Feed / actions -->
  <symbol id="i-filter" viewBox="0 0 24 24">
    <path fill="currentColor" d="M3 5h18v2H3V5zm4 6h10v2H7v-2zm3 6h4v2h-4v-2z"/>
  </symbol>

  <symbol id="i-refresh" viewBox="0 0 24 24">
    <path fill="currentColor" d="M17.65 6.35A7.95 7.95 0 0012 4V1L7 6l5 5V7a5 5 0 11-5 5H5a7 7 0 107.75-6.95 7.9 7.9 0 014.9 1.3z"/>
  </symbol>

  <symbol id="i-more" viewBox="0 0 24 24">
    <path fill="currentColor" d="M6 14a2 2 0 110-4 2 2 0 010 4zm6 0a2 2 0 110-4 2 2 0 010 4zm6 0a2 2 0 110-4 2 2 0 010 4z"/>
  </symbol>

  <symbol id="i-heart" viewBox="0 0 24 24">
    <path fill="currentColor" d="M12 21s-7-4.6-9.5-8.5C.6 9.6 2.3 6 6 6c2 0 3.2 1 4 2 0 0 1.2-2 4-2 3.7 0 5.4 3.6 3.5 6.5C19 16.4 12 21 12 21z"/>
  </symbol>

  <symbol id="i-reply" viewBox="0 0 24 24">
    <path fill="currentColor" d="M10 9V5l-7 7 7 7v-4.1c5 0 8.5 1.6 11 5.1-.5-7-4.5-11-11-11z"/>
  </symbol>

  <symbol id="i-repost" viewBox="0 0 24 24">
    <path fill="currentColor" d="M7 7h11l-2-2 1.4-1.4L22.8 9l-5.4 5.4L16 13l2-2H9v3H7V7zm10 10H6l2 2-1.4 1.4L1.2 15l5.4-5.4L8 11l-2 2h9v-3h2v7z"/>
  </symbol>

  <symbol id="i-bookmark" viewBox="0 0 24 24">
    <path fill="currentColor" d="M6 2h12v20l-6-3-6 3V2z"/>
  </symbol>

  <!-- Proof / Privacy / Meta -->
  <symbol id="i-shield" viewBox="0 0 24 24">
    <path fill="currentColor" d="M12 2l8 4v6c0 5-3.4 9.7-8 10-4.6-.3-8-5-8-10V6l8-4zm0 6a1 1 0 00-1 1v4.2l2.6 1.5 1-1.73-1.6-.92V9a1 1 0 00-1-1z"/>
  </symbol>

  <symbol id="i-lock" viewBox="0 0 24 24">
    <path fill="currentColor" d="M17 9h-1V7a4 4 0 00-8 0v2H7a2 2 0 00-2 2v9a2 2 0 002 2h10a2 2 0 002-2v-9a2 2 0 00-2-2zM10 7a2 2 0 114 0v2h-4V7zm3 9.73V18h-2v-1.27a2 2 0 111.99 0z"/>
  </symbol>

  <symbol id="i-link" viewBox="0 0 24 24">
    <path fill="currentColor" d="M10.59 13.41a1.996 1.996 0 010-2.82l2.83-2.83a2 2 0 112.83 2.83l-1.41 1.41 1.41 1.41 1.41-1.41a4 4 0 10-5.66-5.66L9.17 9.17a4 4 0 105.66 5.66l.71-.71-1.41-1.41-.71.7a2 2 0 01-2.82 0z"/>
  </symbol>

  <symbol id="i-bell" viewBox="0 0 24 24">
    <path fill="currentColor" d="M12 22a2.5 2.5 0 002.45-2h-4.9A2.5 2.5 0 0012 22zm7-6V11a7 7 0 00-5-6.71V3a2 2 0 10-4 0v1.29A7 7 0 005 11v5l-2 2v1h18v-1l-2-2z"/>
  </symbol>

  <symbol id="i-logout" viewBox="0 0 24 24">
    <path fill="currentColor" d="M10 17v-2h4v-2h-4v-2l-3 3 3 3zm9-12H11a2 2 0 00-2 2v3h2V7h8v10h-8v-3H9v3a2 2 0 002 2h8a2 2 0 002-2V7a2 2 0 00-2-2z"/>
  </symbol>

  <symbol id="i-chev" viewBox="0 0 24 24">
    <path fill="currentColor" d="M8.59 16.59L13.17 12 8.59 7.41 10 6l6 6-6 6-1.41-1.41z"/>
  </symbol>

  <symbol id="i-command" viewBox="0 0 24 24">
    <path fill="currentColor" d="M7 3a3 3 0 013 3v2h4V6a3 3 0 116 0 3 3 0 01-3 3h-2v4h2a3 3 0 110 6 3 3 0 01-3-3v-2H10v2a3 3 0 11-6 0 3 3 0 013-3h2V9H7a3 3 0 110-6zm3 6v4h4V9h-4z"/>
  </symbol>

  <symbol id="i-spark" viewBox="0 0 24 24">
    <path fill="currentColor" d="M12 2l1.2 4.2L17.4 7 13.2 8.2 12 12l-1.2-3.8L6.6 7l4.2-.8L12 2zm7 10l.8 2.6L22 15l-2.2.4L19 18l-.8-2.6L16 15l2.2-.4L19 12zM5 12l.9 3.2L9 16l-3.1.6L5 20l-.9-3.4L1 16l3.1-.8L5 12z"/>
  </symbol>

  <!-- Optional extras you will likely need next -->
  <symbol id="i-arrow-left" viewBox="0 0 24 24">
    <path fill="currentColor" d="M14 7l-5 5 5 5-1.4 1.4L6.2 12l6.4-6.4L14 7z"/>
  </symbol>

  <symbol id="i-arrow-right" viewBox="0 0 24 24">
    <path fill="currentColor" d="M10 17l5-5-5-5 1.4-1.4 6.4 6.4-6.4 6.4L10 17z"/>
  </symbol>

  <symbol id="i-check" viewBox="0 0 24 24">
    <path fill="currentColor" d="M9 16.2l-3.5-3.5L4 14.2l5 5 11-11-1.5-1.5L9 16.2z"/>
  </symbol>

  <symbol id="i-alert" viewBox="0 0 24 24">
    <path fill="currentColor" d="M12 2L1 21h22L12 2zm1 15h-2v-2h2v2zm0-4h-2V9h2v4z"/>
  </symbol>
</svg>
